<svg viewBox="-0.5 -0.5 16 16" fill="none" xmlns="http://www.w3.org/2000/svg" id="Cycling--Streamline-Iconoir" height="16px" width="16px" transform="rotate(0) scale(1, 1)">
  <desc>
    Cycling Streamline Icon: https://streamlinehq.com
  </desc>
  <path d="M9.0076875 3.73075c0.8326875 0 1.5076875 -0.675 1.5076875 -1.5076875s-0.675 -1.5076875 -1.5076875 -1.5076875S7.5 1.3903750000000001 7.5 2.2230625s0.675 1.5076875 1.5076875 1.5076875Z" stroke="#ffffff" stroke-linecap="round" stroke-linejoin="round" stroke-width="1"/>
  <path d="M12.023062499999998 14.284625c1.2490625 0 2.2615625 -1.0125000000000002 2.2615625 -2.2615625s-1.0125000000000002 -2.2615 -2.2615625 -2.2615 -2.2615 1.0125000000000002 -2.2615 2.2615 1.0125000000000002 2.2615625 2.2615 2.2615625Z" stroke="#ffffff" stroke-linecap="round" stroke-linejoin="round" stroke-width="1"/>
  <path d="M2.9769375 14.284625c1.2489999999999999 0 2.2615 -1.0125000000000002 2.2615 -2.2615625s-1.0125000000000002 -2.2615 -2.2615 -2.2615 -2.2615625 1.0125000000000002 -2.2615625 2.2615 1.0125625 2.2615625 2.2615625 2.2615625Z" stroke="#ffffff" stroke-linecap="round" stroke-linejoin="round" stroke-width="1"/>
  <path d="m7.1230625000000005 12.023062499999998 1.1308125 -3.015375L4.5733125 7.5l2.2617499999999997 -2.6384374999999998 2.2615 1.8846874999999998h2.6384999999999996" stroke="#ffffff" stroke-linecap="round" stroke-linejoin="round" stroke-width="1"/>
</svg>