<svg width="175" height="175" viewBox="0 0 175 175" fill="none" xmlns="http://www.w3.org/2000/svg">
<path d="M153.125 32.8125C153.125 42.8802 144.964 51.0416 134.896 51.0416C124.828 51.0416 116.667 42.8802 116.667 32.8125C116.667 22.7448 124.828 14.5833 134.896 14.5833C144.964 14.5833 153.125 22.7448 153.125 32.8125Z" fill="#F2F2F2"/>
<path fill-rule="evenodd" clip-rule="evenodd" d="M65.4231 42.3655C72.0042 39.4621 79.4704 39.2978 86.1729 41.9091C104.895 49.2037 109.421 73.6371 94.5532 87.1529L86.9692 94.0479C86.6782 94.3119 86.5929 94.3899 86.5375 94.4424C82.5023 98.2618 82.7932 104.772 87.1536 108.216C87.2142 108.263 87.3068 108.334 87.6196 108.571L87.6444 108.59C88.0717 108.913 88.3196 109.101 88.5566 109.285C102.212 119.859 110.283 136.098 110.466 153.369C110.469 153.668 110.469 153.978 110.469 154.512V160.417C110.469 163.437 108.02 165.885 105 165.885C101.98 165.885 99.5313 163.437 99.5313 160.417V154.547C99.5313 153.968 99.5313 153.718 99.5291 153.484C99.3818 139.556 92.8732 126.46 81.8599 117.933C81.6754 117.789 81.4764 117.638 81.0148 117.289L80.9681 117.253C80.7239 117.068 80.5343 116.925 80.3753 116.799C70.7825 109.223 70.1413 94.9018 79.0183 86.4996C79.1664 86.3596 79.3414 86.1999 79.5703 85.9928L87.1959 79.0599C96.0553 71.0062 93.3581 56.4471 82.2019 52.1005C78.2082 50.5444 73.7596 50.6423 69.8379 52.3723L66.0339 54.0506C62.0581 55.8046 60.222 56.6161 58.4369 57.5022C55.4269 58.9962 52.5036 60.6589 49.681 62.4824C48.0069 63.5638 46.3711 64.7272 42.8314 67.2479L32.3389 74.7199C29.8787 76.4721 26.464 75.8975 24.712 73.4373C22.96 70.9772 23.5341 67.5625 25.9944 65.8105L36.6109 58.2503C39.9957 55.8399 41.84 54.5265 43.746 53.2952C46.9142 51.2485 50.1954 49.3822 53.574 47.7051C55.6065 46.6963 57.678 45.7824 61.4798 44.1051L65.4231 42.3655ZM111.361 86.1736C112.094 83.2439 115.063 81.4618 117.993 82.1946C126.697 84.3704 135.803 84.3704 144.507 82.1946C147.437 81.4618 150.406 83.2439 151.139 86.1736C151.872 89.1034 150.089 92.0726 147.16 92.8054C136.714 95.4166 125.786 95.4166 115.34 92.8054C112.411 92.0726 110.628 89.1034 111.361 86.1736ZM69.126 119.757C71.4463 121.691 71.7598 125.139 69.8262 127.459L67.9351 129.729C56.5437 143.399 39.669 151.302 21.875 151.302C18.8547 151.302 16.4062 148.854 16.4062 145.833C16.4062 142.813 18.8547 140.365 21.875 140.365C36.423 140.365 50.2193 133.903 59.5327 122.727L61.4238 120.458C63.3574 118.137 66.8057 117.824 69.126 119.757Z" fill="#F2F2F2"/>
</svg>
