<svg width="175" height="175" viewBox="0 0 175 175" fill="none" xmlns="http://www.w3.org/2000/svg">
<path d="M109.375 32.8125C109.375 42.8802 101.214 51.0417 91.1459 51.0417C81.0783 51.0417 72.9167 42.8802 72.9167 32.8125C72.9167 22.7448 81.0783 14.5833 91.1459 14.5833C101.214 14.5833 109.375 22.7448 109.375 32.8125Z" fill="#F2F2F2"/>
<path fill-rule="evenodd" clip-rule="evenodd" d="M79.6922 67.5733C81.149 67.4944 82.5541 67.4479 83.8542 67.4479C87.8945 67.4479 92.2681 67.8969 96.2049 68.4624C107.3 70.0558 115.7 78.2432 119.057 88.3145C119.817 90.5953 122.124 91.9836 124.496 91.5884L137.643 89.3973C140.622 88.9007 143.44 90.9132 143.936 93.8926C144.433 96.872 142.42 99.6895 139.441 100.186L126.294 102.377C118.613 103.658 111.143 99.1594 108.681 91.7729C106.44 85.0515 101.077 80.212 94.6503 79.2888C92.6983 79.0081 90.7113 78.7711 88.7812 78.6107L86.8037 98.3813C86.1919 104.504 86.1205 106.121 86.5339 107.565C86.9466 109.009 87.8625 110.343 91.6213 115.215L123.916 157.076C125.762 159.467 125.318 162.902 122.927 164.746C120.536 166.591 117.101 166.149 115.257 163.757L82.961 121.896C82.7867 121.67 82.6147 121.447 82.444 121.227C79.4501 117.353 77.081 114.288 76.0179 110.574C74.9555 106.86 75.3441 103.006 75.8363 98.1349C75.864 97.8578 75.8925 97.5771 75.9209 97.2934L77.7737 78.7668C65.5721 80.7625 56.5107 92.233 56.5107 105.729C56.5107 108.749 54.0622 111.198 51.042 111.198C48.0216 111.198 45.5732 108.749 45.5732 105.729C45.5732 86.4741 59.528 68.6661 79.6922 67.5733ZM73.9893 122.242C76.9512 122.834 78.8718 125.715 78.2798 128.677C75.6723 141.713 68.5519 153.412 58.1709 161.717L54.4582 164.687C52.0998 166.574 48.6583 166.192 46.7716 163.833C44.8848 161.475 45.2672 158.033 47.6257 156.146L51.3383 153.176C59.7099 146.479 65.4519 137.044 67.5544 126.532C68.1467 123.57 71.0278 121.649 73.9893 122.242Z" fill="#F2F2F2"/>
</svg>
