<svg width="1178" height="760" viewBox="0 0 1178 760" fill="none" xmlns="http://www.w3.org/2000/svg">
<g clip-path="url(#clip0_2_425)">
<path d="M309.689 123.571C309.689 92.4883 334.898 67.291 365.996 67.291H1180V179.851H365.996C334.898 179.851 309.689 154.653 309.689 123.571Z" fill="#B04DAE"/>
<path d="M0 704.72C0 673.638 25.2095 648.441 56.3071 648.441H1180V736.531C1180 750.045 1169.04 761 1155.52 761H56.3071C25.2095 761 0 735.803 0 704.72Z" fill="#A22EA0"/>
<path d="M303.568 606.842C303.568 575.76 328.778 550.563 359.876 550.563H1180V663.122H359.876C328.778 663.122 303.568 637.925 303.568 606.842Z" fill="#A22EA0"/>
<path d="M166.473 510.188C166.473 479.106 191.683 453.908 222.78 453.908H1180V566.468H222.78C191.683 566.468 166.473 541.27 166.473 510.188Z" fill="#A22EA0"/>
<path d="M505.539 423.322C505.539 392.239 530.749 367.042 561.846 367.042H1180V455.132C1180 468.646 1169.04 479.601 1155.52 479.601H561.846C530.749 479.601 505.539 454.404 505.539 423.322Z" fill="#A22EA0"/>
<path d="M266.846 310.762C266.846 279.68 292.056 254.482 323.153 254.482H1180V367.042H323.153C292.056 367.042 266.846 341.844 266.846 310.762Z" fill="#B04DAE"/>
<path d="M372.116 406.193C372.116 375.111 397.326 349.913 428.423 349.913H1180V462.473H428.423C397.326 462.473 372.116 437.275 372.116 406.193Z" fill="#B04DAE"/>
<path d="M122.407 681.474C122.407 650.392 147.616 625.195 178.714 625.195H1180V737.754H178.714C147.616 737.754 122.407 712.557 122.407 681.474Z" fill="#B04DAE"/>
<path d="M541.037 648.441C541.037 617.358 566.247 592.161 597.344 592.161H1180V704.72H597.344C566.247 704.72 541.037 679.523 541.037 648.441Z" fill="#CC8CCB"/>
<path d="M791.971 578.703C791.971 547.62 817.181 522.423 848.278 522.423H1180V634.982H848.278C817.181 634.982 791.971 609.785 791.971 578.703Z" fill="#CC8CCB"/>
<path d="M419.855 453.908C419.855 422.826 445.064 397.629 476.162 397.629H1180V510.188H476.162C445.064 510.188 419.855 484.991 419.855 453.908Z" fill="#CC8CCB"/>
<path d="M505.539 261.823C505.539 230.741 530.749 205.543 561.846 205.543H1180V318.103H561.846C530.749 318.103 505.539 292.905 505.539 261.823Z" fill="#CC8CCB"/>
<path d="M505.539 56.2797C505.539 25.1973 530.749 0 561.846 0H1180V112.559H561.846C530.749 112.559 505.539 87.3622 505.539 56.2797Z" fill="#B04DAE"/>
<path d="M391.701 183.521C391.701 152.439 416.911 127.241 448.008 127.241H1180V239.801H448.008C416.911 239.801 391.701 214.603 391.701 183.521Z" fill="#CC8CCB"/>
</g>
<defs>
<clipPath id="clip0_2_425">
<rect width="1180" height="761" fill="white"/>
</clipPath>
</defs>
</svg>
