<svg width="419" height="536" viewBox="0 0 419 536" fill="none" xmlns="http://www.w3.org/2000/svg">
<rect width="419" height="536" fill="#D9D9D9"/>
<path d="M40.7955 303V250.636H54.6364V259.875H55.25C56.3409 256.807 58.1591 254.386 60.7045 252.614C63.25 250.841 66.2955 249.955 69.8409 249.955C73.4318 249.955 76.4886 250.852 79.0114 252.648C81.5341 254.42 83.2159 256.83 84.0568 259.875H84.6023C85.6705 256.875 87.6023 254.477 90.3977 252.682C93.2159 250.864 96.5455 249.955 100.386 249.955C105.273 249.955 109.239 251.511 112.284 254.625C115.352 257.716 116.886 262.102 116.886 267.784V303H102.398V270.648C102.398 267.739 101.625 265.557 100.08 264.102C98.5341 262.648 96.6023 261.92 94.2841 261.92C91.6477 261.92 89.5909 262.761 88.1136 264.443C86.6364 266.102 85.8977 268.295 85.8977 271.023V303H71.8182V270.341C71.8182 267.773 71.0795 265.727 69.6023 264.205C68.1477 262.682 66.2273 261.92 63.8409 261.92C62.2273 261.92 60.7727 262.33 59.4773 263.148C58.2045 263.943 57.1932 265.068 56.4432 266.523C55.6932 267.955 55.3182 269.636 55.3182 271.568V303H40.7955ZM143.29 303.989C139.949 303.989 136.972 303.409 134.358 302.25C131.744 301.068 129.676 299.33 128.153 297.034C126.653 294.716 125.903 291.83 125.903 288.375C125.903 285.466 126.438 283.023 127.506 281.045C128.574 279.068 130.028 277.477 131.869 276.273C133.71 275.068 135.801 274.159 138.142 273.545C140.506 272.932 142.983 272.5 145.574 272.25C148.619 271.932 151.074 271.636 152.938 271.364C154.801 271.068 156.153 270.636 156.994 270.068C157.835 269.5 158.256 268.659 158.256 267.545V267.341C158.256 265.182 157.574 263.511 156.21 262.33C154.869 261.148 152.96 260.557 150.483 260.557C147.869 260.557 145.79 261.136 144.244 262.295C142.699 263.432 141.676 264.864 141.176 266.591L127.744 265.5C128.426 262.318 129.767 259.568 131.767 257.25C133.767 254.909 136.347 253.114 139.506 251.864C142.688 250.591 146.369 249.955 150.551 249.955C153.46 249.955 156.244 250.295 158.903 250.977C161.585 251.659 163.96 252.716 166.028 254.148C168.119 255.58 169.767 257.42 170.972 259.67C172.176 261.898 172.778 264.568 172.778 267.682V303H159.006V295.739H158.597C157.756 297.375 156.631 298.818 155.222 300.068C153.812 301.295 152.119 302.261 150.142 302.966C148.165 303.648 145.881 303.989 143.29 303.989ZM147.449 293.966C149.585 293.966 151.472 293.545 153.108 292.705C154.744 291.841 156.028 290.682 156.96 289.227C157.892 287.773 158.358 286.125 158.358 284.284V278.727C157.903 279.023 157.278 279.295 156.483 279.545C155.71 279.773 154.835 279.989 153.858 280.193C152.881 280.375 151.903 280.545 150.926 280.705C149.949 280.841 149.062 280.966 148.267 281.08C146.563 281.33 145.074 281.727 143.801 282.273C142.528 282.818 141.54 283.557 140.835 284.489C140.131 285.398 139.778 286.534 139.778 287.898C139.778 289.875 140.494 291.386 141.926 292.432C143.381 293.455 145.222 293.966 147.449 293.966ZM227.614 265.568L214.318 266.386C214.091 265.25 213.602 264.227 212.852 263.318C212.102 262.386 211.114 261.648 209.886 261.102C208.682 260.534 207.239 260.25 205.557 260.25C203.307 260.25 201.409 260.727 199.864 261.682C198.318 262.614 197.545 263.864 197.545 265.432C197.545 266.682 198.045 267.739 199.045 268.602C200.045 269.466 201.761 270.159 204.193 270.682L213.67 272.591C218.761 273.636 222.557 275.318 225.057 277.636C227.557 279.955 228.807 283 228.807 286.773C228.807 290.205 227.795 293.216 225.773 295.807C223.773 298.398 221.023 300.42 217.523 301.875C214.045 303.307 210.034 304.023 205.489 304.023C198.557 304.023 193.034 302.58 188.92 299.693C184.83 296.784 182.432 292.83 181.727 287.83L196.011 287.08C196.443 289.193 197.489 290.807 199.148 291.92C200.807 293.011 202.932 293.557 205.523 293.557C208.068 293.557 210.114 293.068 211.659 292.091C213.227 291.091 214.023 289.807 214.045 288.239C214.023 286.92 213.466 285.841 212.375 285C211.284 284.136 209.602 283.477 207.33 283.023L198.261 281.216C193.148 280.193 189.341 278.42 186.841 275.898C184.364 273.375 183.125 270.159 183.125 266.25C183.125 262.886 184.034 259.989 185.852 257.557C187.693 255.125 190.273 253.25 193.591 251.932C196.932 250.614 200.841 249.955 205.318 249.955C211.932 249.955 217.136 251.352 220.932 254.148C224.75 256.943 226.977 260.75 227.614 265.568ZM261.611 304.023C256.247 304.023 251.634 302.886 247.77 300.614C243.929 298.318 240.974 295.136 238.906 291.068C236.861 287 235.838 282.318 235.838 277.023C235.838 271.659 236.872 266.955 238.94 262.909C241.031 258.841 243.997 255.67 247.838 253.398C251.679 251.102 256.247 249.955 261.543 249.955C266.111 249.955 270.111 250.784 273.543 252.443C276.974 254.102 279.69 256.432 281.69 259.432C283.69 262.432 284.793 265.955 284.997 270H271.293C270.906 267.386 269.884 265.284 268.224 263.693C266.588 262.08 264.44 261.273 261.781 261.273C259.531 261.273 257.565 261.886 255.884 263.114C254.224 264.318 252.929 266.08 251.997 268.398C251.065 270.716 250.599 273.523 250.599 276.818C250.599 280.159 251.054 283 251.963 285.341C252.895 287.682 254.202 289.466 255.884 290.693C257.565 291.92 259.531 292.534 261.781 292.534C263.44 292.534 264.929 292.193 266.247 291.511C267.588 290.83 268.69 289.841 269.554 288.545C270.44 287.227 271.02 285.648 271.293 283.807H284.997C284.77 287.807 283.679 291.33 281.724 294.375C279.793 297.398 277.122 299.761 273.713 301.466C270.304 303.17 266.27 304.023 261.611 304.023ZM317.955 304.023C312.659 304.023 308.08 302.898 304.216 300.648C300.375 298.375 297.409 295.216 295.318 291.17C293.227 287.102 292.182 282.386 292.182 277.023C292.182 271.614 293.227 266.886 295.318 262.841C297.409 258.773 300.375 255.614 304.216 253.364C308.08 251.091 312.659 249.955 317.955 249.955C323.25 249.955 327.818 251.091 331.659 253.364C335.523 255.614 338.5 258.773 340.591 262.841C342.682 266.886 343.727 271.614 343.727 277.023C343.727 282.386 342.682 287.102 340.591 291.17C338.5 295.216 335.523 298.375 331.659 300.648C327.818 302.898 323.25 304.023 317.955 304.023ZM318.023 292.773C320.432 292.773 322.443 292.091 324.057 290.727C325.67 289.341 326.886 287.455 327.705 285.068C328.545 282.682 328.966 279.966 328.966 276.92C328.966 273.875 328.545 271.159 327.705 268.773C326.886 266.386 325.67 264.5 324.057 263.114C322.443 261.727 320.432 261.034 318.023 261.034C315.591 261.034 313.545 261.727 311.886 263.114C310.25 264.5 309.011 266.386 308.17 268.773C307.352 271.159 306.943 273.875 306.943 276.92C306.943 279.966 307.352 282.682 308.17 285.068C309.011 287.455 310.25 289.341 311.886 290.727C313.545 292.091 315.591 292.773 318.023 292.773ZM381.023 250.636V261.545H349.489V250.636H381.023ZM356.648 238.091H371.17V286.909C371.17 288.25 371.375 289.295 371.784 290.045C372.193 290.773 372.761 291.284 373.489 291.58C374.239 291.875 375.102 292.023 376.08 292.023C376.761 292.023 377.443 291.966 378.125 291.852C378.807 291.716 379.33 291.614 379.693 291.545L381.977 302.352C381.25 302.58 380.227 302.841 378.909 303.136C377.591 303.455 375.989 303.648 374.102 303.716C370.602 303.852 367.534 303.386 364.898 302.318C362.284 301.25 360.25 299.591 358.795 297.341C357.341 295.091 356.625 292.25 356.648 288.818V238.091Z" fill="black"/>
</svg>
