<!-- icon666.com - MILLIONS OF FREE VECTOR ICONS --><svg id="Layer_1" enable-background="new 0 0 124 124" viewBox="0 0 124 124" xmlns="http://www.w3.org/2000/svg"><path d="m121.998 104c-.353 0-.71-.094-1.034-.29-3.999-2.422-7.693-3.542-10.987-3.32-2.206.147-3.556.827-5.118 1.616-1.744.88-3.722 1.877-6.775 1.896-.029 0-.058 0-.086 0-3.125 0-5.094-1.026-6.833-1.932-1.537-.8-2.871-1.493-5.047-1.479-2.115.013-3.307.649-4.815 1.454-1.687.9-3.598 1.919-6.751 1.958-3.195.015-5.168-.951-6.919-1.823-1.578-.786-2.941-1.465-5.286-1.492-2.329-.039-3.751.635-5.379 1.402-1.777.838-3.787 1.785-6.948 1.785-.061 0-.121 0-.184-.001-3.237-.057-5.201-1.044-6.934-1.916-1.57-.789-2.793-1.396-4.995-1.399-2.185.026-3.478.703-4.978 1.487-1.708.893-3.645 1.905-6.795 1.924-3.003 0-4.966-.927-6.697-1.746-1.522-.719-2.96-1.399-5.241-1.575-3.433-.268-7.213.699-11.253 2.859-.973.522-2.186.153-2.706-.821s-.153-2.187.821-2.707c4.722-2.525 9.244-3.643 13.444-3.32 3.018.233 4.943 1.143 6.644 1.947 1.61.761 2.883 1.362 4.977 1.362 2.169-.013 3.459-.688 4.954-1.469 1.706-.892 3.641-1.904 6.795-1.942 3.127.004 5.107.961 6.827 1.826 1.546.778 2.881 1.449 5.195 1.49 2.337.033 3.74-.636 5.368-1.403 1.777-.838 3.787-1.785 6.947-1.785.061 0 .121 0 .184.001 3.26.038 5.259 1.033 7.022 1.912 1.604.799 2.836 1.416 5.088 1.403 2.179-.026 3.447-.703 4.916-1.487 1.674-.893 3.571-1.906 6.674-1.925h.087c3.125 0 5.094 1.026 6.833 1.932 1.537.8 2.888 1.478 5.046 1.479 2.114-.013 3.388-.655 4.999-1.468 1.705-.86 3.638-1.834 6.652-2.035 4.136-.274 8.609 1.032 13.326 3.889.944.572 1.247 1.803.675 2.748-.376.621-1.037.965-1.713.965z"></path><path d="m121.998 92.092c-.353 0-.71-.094-1.034-.29-4-2.423-7.696-3.538-10.987-3.32-2.206.147-3.556.827-5.118 1.616-1.744.88-3.722 1.877-6.775 1.897-.029 0-.058 0-.086 0-3.125 0-5.094-1.026-6.833-1.932-1.537-.8-2.871-1.455-5.047-1.479-2.115.013-3.308.649-4.816 1.454-1.686.9-3.597 1.919-6.75 1.958-3.195.022-5.168-.95-6.919-1.823-1.578-.786-2.941-1.465-5.286-1.492-2.329-.031-3.752.635-5.379 1.402-1.777.837-3.787 1.785-6.948 1.785-.061 0-.121 0-.184-.001-3.238-.056-5.201-1.044-6.935-1.915-1.569-.79-2.792-1.399-4.994-1.4-2.185.026-3.478.703-4.978 1.487-2.099 1.098-4.207 1.881-6.609 1.921-2.469.042-4.681-.701-6.883-1.742-1.522-.719-2.96-1.399-5.241-1.575-3.433-.264-7.213.699-11.253 2.859-.973.521-2.186.153-2.706-.821-.521-.974-.153-2.187.821-2.707 4.722-2.525 9.244-3.643 13.444-3.32 3.018.233 4.943 1.143 6.644 1.947 1.61.761 2.883 1.362 4.977 1.362 2.169-.013 3.459-.688 4.954-1.47 1.706-.892 3.641-1.904 6.794-1.942h.092c3.105 0 5.033.969 6.735 1.826 1.546.778 2.882 1.449 5.195 1.489 2.338.039 3.741-.635 5.369-1.403 1.777-.838 3.787-1.785 6.947-1.785.061 0 .121 0 .184.001 3.26.038 5.259 1.033 7.022 1.912 1.604.799 2.836 1.432 5.088 1.403 2.179-.026 3.447-.703 4.916-1.487 1.674-.893 3.571-1.906 6.674-1.925h.087c3.125 0 5.094 1.026 6.833 1.932 1.537.801 2.888 1.47 5.046 1.479 2.114-.013 3.388-.655 4.999-1.469 1.705-.86 3.638-1.834 6.652-2.035 4.131-.277 8.608 1.033 13.326 3.89.944.572 1.247 1.803.675 2.748-.376.621-1.037.965-1.713.965z"></path><path d="m101.32 81.107c-8.991 0-16.306-7.336-16.306-16.354s7.314-16.354 16.306-16.354 16.306 7.336 16.306 16.354-7.315 16.354-16.306 16.354zm0-28.707c-6.785 0-12.306 5.541-12.306 12.353s5.52 12.353 12.306 12.353 12.306-5.541 12.306-12.353-5.521-12.353-12.306-12.353z"></path><path d="m28.244 85.21c-2.072 0-2.733-2.9-.872-3.802l27.609-13.365c-4.277-2.36-7.076-6.625-7.557-11.6-.525-5.445 1.788-10.604 6.189-13.8l25.764-20.441c4.351-3.452 10.763-2.771 14.299 1.515 3.635 4.409 2.912 11.142-1.574 14.674l-21.898 17.239 12.756 21.745c.56.953.24 2.179-.713 2.738-.951.558-2.179.239-2.736-.713l-13.639-23.25c-.506-.863-.298-1.966.487-2.585l23.268-18.319c2.745-2.16 3.186-6.289.963-8.984-2.158-2.616-6.072-3.033-8.727-.926l-25.831 20.494c-3.311 2.406-5.014 6.211-4.626 10.229.376 3.899 2.689 7.198 6.187 8.825.775.338 1.366.953 1.405 1.84l.107 2.423c.035.798-.407 1.541-1.127 1.889l-28.864 13.974c-.28.136-.577.2-.87.2z"></path></svg>