<svg width="1157" height="844" viewBox="0 0 1157 844" fill="none" xmlns="http://www.w3.org/2000/svg">
<g clip-path="url(#clip0_2_618)">
<path d="M144.517 779.119C144.517 742.734 173.986 713.237 210.337 713.237H1159V816.356C1159 832.176 1146.19 845 1130.38 845H210.337C173.986 845 144.517 815.504 144.517 779.119Z" fill="#A22EA0"/>
<path d="M10.016 703.212C10.016 666.827 39.4845 637.331 75.8357 637.331H1159V740.449C1159 756.269 1146.19 769.093 1130.38 769.093H75.8357C39.4845 769.093 10.016 739.597 10.016 703.212Z" fill="#A22EA0"/>
<path d="M10.016 409.61C10.016 373.225 39.4845 343.729 75.8357 343.729H1159V446.847C1159 462.668 1146.19 475.492 1130.38 475.492H75.8357C39.4845 475.492 10.016 445.995 10.016 409.61Z" fill="#A22EA0"/>
<path d="M144.517 257.797C144.517 221.411 173.986 191.915 210.337 191.915H1159V295.034C1159 310.854 1146.19 323.678 1130.38 323.678H210.337C173.986 323.678 144.517 294.182 144.517 257.797Z" fill="#A22EA0"/>
<path d="M351.993 713.237C351.993 676.852 381.461 647.356 417.812 647.356H1159V779.119H417.812C381.461 779.119 351.993 749.622 351.993 713.237Z" fill="#B04DAE"/>
<path d="M97.2987 485.517C97.2987 449.132 126.767 419.636 163.118 419.636H1159V551.398H163.118C126.767 551.398 97.2987 521.902 97.2987 485.517Z" fill="#B04DAE"/>
<path d="M290.465 65.8814C290.465 29.4961 319.934 0 356.285 0H1159V131.763H356.285C319.934 131.763 290.465 102.267 290.465 65.8814Z" fill="#B04DAE"/>
<path d="M0 191.915C0 155.53 29.4685 126.034 65.8198 126.034H1159V257.797H65.8198C29.4685 257.797 0 228.3 0 191.915Z" fill="#B04DAE"/>
<path d="M556.606 287.873C556.606 251.488 586.075 221.992 622.426 221.992H1159V353.754H622.426C586.075 353.754 556.606 324.258 556.606 287.873Z" fill="#B04DAE"/>
<path d="M196.028 647.356C196.028 610.971 225.497 581.475 261.848 581.475H1159V713.237H261.848C225.497 713.237 196.028 683.741 196.028 647.356Z" fill="#B04DAE"/>
<path d="M290.465 572.881C290.465 536.496 319.934 507 356.285 507H1159V638.763H356.285C319.934 638.763 290.465 609.266 290.465 572.881Z" fill="#CC8CCB"/>
<path d="M437.844 191.915C437.844 155.53 467.313 126.034 503.664 126.034H815.593C851.944 126.034 881.412 155.53 881.412 191.915C881.412 228.3 851.944 257.797 815.593 257.797H503.664C467.313 257.797 437.844 228.3 437.844 191.915Z" fill="#CC8CCB"/>
<path d="M224.646 353.754C224.646 317.369 254.114 287.873 290.465 287.873H1027.36C1063.71 287.873 1093.18 317.369 1093.18 353.754C1093.18 390.139 1063.71 419.636 1027.36 419.636H290.465C254.114 419.636 224.646 390.139 224.646 353.754Z" fill="#CC8CCB"/>
<path d="M565.191 419.636C565.191 383.251 594.66 353.754 631.011 353.754H1159V485.517H631.011C594.66 485.517 565.191 456.021 565.191 419.636Z" fill="#CC8CCB"/>
<path d="M470.754 743.314C470.754 706.928 500.223 677.432 536.574 677.432H602.394C638.745 677.432 668.214 706.928 668.214 743.314C668.214 779.699 638.745 809.195 602.394 809.195H536.574C500.223 809.195 470.754 779.699 470.754 743.314Z" fill="#CC8CCB"/>
<path d="M686.815 743.314C686.815 706.928 716.284 677.432 752.635 677.432H1064.56C1100.91 677.432 1130.38 706.928 1130.38 743.314C1130.38 779.699 1100.91 809.195 1064.56 809.195H752.635C716.284 809.195 686.815 779.699 686.815 743.314Z" fill="#CC8CCB"/>
</g>
<defs>
<clipPath id="clip0_2_618">
<rect width="1159" height="845" fill="white"/>
</clipPath>
</defs>
</svg>
