<svg width="419" height="536" viewBox="0 0 419 536" fill="none" xmlns="http://www.w3.org/2000/svg">
<rect width="419" height="536" fill="#D9D9D9"/>
<path d="M32.7955 303V250.636H46.6364V259.875H47.25C48.3409 256.807 50.1591 254.386 52.7045 252.614C55.25 250.841 58.2955 249.955 61.8409 249.955C65.4318 249.955 68.4886 250.852 71.0114 252.648C73.5341 254.42 75.2159 256.83 76.0568 259.875H76.6023C77.6705 256.875 79.6023 254.477 82.3977 252.682C85.2159 250.864 88.5455 249.955 92.3864 249.955C97.2727 249.955 101.239 251.511 104.284 254.625C107.352 257.716 108.886 262.102 108.886 267.784V303H94.3977V270.648C94.3977 267.739 93.625 265.557 92.0795 264.102C90.5341 262.648 88.6023 261.92 86.2841 261.92C83.6477 261.92 81.5909 262.761 80.1136 264.443C78.6364 266.102 77.8977 268.295 77.8977 271.023V303H63.8182V270.341C63.8182 267.773 63.0795 265.727 61.6023 264.205C60.1477 262.682 58.2273 261.92 55.8409 261.92C54.2273 261.92 52.7727 262.33 51.4773 263.148C50.2045 263.943 49.1932 265.068 48.4432 266.523C47.6932 267.955 47.3182 269.636 47.3182 271.568V303H32.7955ZM135.29 303.989C131.949 303.989 128.972 303.409 126.358 302.25C123.744 301.068 121.676 299.33 120.153 297.034C118.653 294.716 117.903 291.83 117.903 288.375C117.903 285.466 118.438 283.023 119.506 281.045C120.574 279.068 122.028 277.477 123.869 276.273C125.71 275.068 127.801 274.159 130.142 273.545C132.506 272.932 134.983 272.5 137.574 272.25C140.619 271.932 143.074 271.636 144.938 271.364C146.801 271.068 148.153 270.636 148.994 270.068C149.835 269.5 150.256 268.659 150.256 267.545V267.341C150.256 265.182 149.574 263.511 148.21 262.33C146.869 261.148 144.96 260.557 142.483 260.557C139.869 260.557 137.79 261.136 136.244 262.295C134.699 263.432 133.676 264.864 133.176 266.591L119.744 265.5C120.426 262.318 121.767 259.568 123.767 257.25C125.767 254.909 128.347 253.114 131.506 251.864C134.688 250.591 138.369 249.955 142.551 249.955C145.46 249.955 148.244 250.295 150.903 250.977C153.585 251.659 155.96 252.716 158.028 254.148C160.119 255.58 161.767 257.42 162.972 259.67C164.176 261.898 164.778 264.568 164.778 267.682V303H151.006V295.739H150.597C149.756 297.375 148.631 298.818 147.222 300.068C145.812 301.295 144.119 302.261 142.142 302.966C140.165 303.648 137.881 303.989 135.29 303.989ZM139.449 293.966C141.585 293.966 143.472 293.545 145.108 292.705C146.744 291.841 148.028 290.682 148.96 289.227C149.892 287.773 150.358 286.125 150.358 284.284V278.727C149.903 279.023 149.278 279.295 148.483 279.545C147.71 279.773 146.835 279.989 145.858 280.193C144.881 280.375 143.903 280.545 142.926 280.705C141.949 280.841 141.062 280.966 140.267 281.08C138.563 281.33 137.074 281.727 135.801 282.273C134.528 282.818 133.54 283.557 132.835 284.489C132.131 285.398 131.778 286.534 131.778 287.898C131.778 289.875 132.494 291.386 133.926 292.432C135.381 293.455 137.222 293.966 139.449 293.966ZM219.614 265.568L206.318 266.386C206.091 265.25 205.602 264.227 204.852 263.318C204.102 262.386 203.114 261.648 201.886 261.102C200.682 260.534 199.239 260.25 197.557 260.25C195.307 260.25 193.409 260.727 191.864 261.682C190.318 262.614 189.545 263.864 189.545 265.432C189.545 266.682 190.045 267.739 191.045 268.602C192.045 269.466 193.761 270.159 196.193 270.682L205.67 272.591C210.761 273.636 214.557 275.318 217.057 277.636C219.557 279.955 220.807 283 220.807 286.773C220.807 290.205 219.795 293.216 217.773 295.807C215.773 298.398 213.023 300.42 209.523 301.875C206.045 303.307 202.034 304.023 197.489 304.023C190.557 304.023 185.034 302.58 180.92 299.693C176.83 296.784 174.432 292.83 173.727 287.83L188.011 287.08C188.443 289.193 189.489 290.807 191.148 291.92C192.807 293.011 194.932 293.557 197.523 293.557C200.068 293.557 202.114 293.068 203.659 292.091C205.227 291.091 206.023 289.807 206.045 288.239C206.023 286.92 205.466 285.841 204.375 285C203.284 284.136 201.602 283.477 199.33 283.023L190.261 281.216C185.148 280.193 181.341 278.42 178.841 275.898C176.364 273.375 175.125 270.159 175.125 266.25C175.125 262.886 176.034 259.989 177.852 257.557C179.693 255.125 182.273 253.25 185.591 251.932C188.932 250.614 192.841 249.955 197.318 249.955C203.932 249.955 209.136 251.352 212.932 254.148C216.75 256.943 218.977 260.75 219.614 265.568ZM253.611 304.023C248.247 304.023 243.634 302.886 239.77 300.614C235.929 298.318 232.974 295.136 230.906 291.068C228.861 287 227.838 282.318 227.838 277.023C227.838 271.659 228.872 266.955 230.94 262.909C233.031 258.841 235.997 255.67 239.838 253.398C243.679 251.102 248.247 249.955 253.543 249.955C258.111 249.955 262.111 250.784 265.543 252.443C268.974 254.102 271.69 256.432 273.69 259.432C275.69 262.432 276.793 265.955 276.997 270H263.293C262.906 267.386 261.884 265.284 260.224 263.693C258.588 262.08 256.44 261.273 253.781 261.273C251.531 261.273 249.565 261.886 247.884 263.114C246.224 264.318 244.929 266.08 243.997 268.398C243.065 270.716 242.599 273.523 242.599 276.818C242.599 280.159 243.054 283 243.963 285.341C244.895 287.682 246.202 289.466 247.884 290.693C249.565 291.92 251.531 292.534 253.781 292.534C255.44 292.534 256.929 292.193 258.247 291.511C259.588 290.83 260.69 289.841 261.554 288.545C262.44 287.227 263.02 285.648 263.293 283.807H276.997C276.77 287.807 275.679 291.33 273.724 294.375C271.793 297.398 269.122 299.761 265.713 301.466C262.304 303.17 258.27 304.023 253.611 304.023ZM309.955 304.023C304.659 304.023 300.08 302.898 296.216 300.648C292.375 298.375 289.409 295.216 287.318 291.17C285.227 287.102 284.182 282.386 284.182 277.023C284.182 271.614 285.227 266.886 287.318 262.841C289.409 258.773 292.375 255.614 296.216 253.364C300.08 251.091 304.659 249.955 309.955 249.955C315.25 249.955 319.818 251.091 323.659 253.364C327.523 255.614 330.5 258.773 332.591 262.841C334.682 266.886 335.727 271.614 335.727 277.023C335.727 282.386 334.682 287.102 332.591 291.17C330.5 295.216 327.523 298.375 323.659 300.648C319.818 302.898 315.25 304.023 309.955 304.023ZM310.023 292.773C312.432 292.773 314.443 292.091 316.057 290.727C317.67 289.341 318.886 287.455 319.705 285.068C320.545 282.682 320.966 279.966 320.966 276.92C320.966 273.875 320.545 271.159 319.705 268.773C318.886 266.386 317.67 264.5 316.057 263.114C314.443 261.727 312.432 261.034 310.023 261.034C307.591 261.034 305.545 261.727 303.886 263.114C302.25 264.5 301.011 266.386 300.17 268.773C299.352 271.159 298.943 273.875 298.943 276.92C298.943 279.966 299.352 282.682 300.17 285.068C301.011 287.455 302.25 289.341 303.886 290.727C305.545 292.091 307.591 292.773 310.023 292.773ZM373.023 250.636V261.545H341.489V250.636H373.023ZM348.648 238.091H363.17V286.909C363.17 288.25 363.375 289.295 363.784 290.045C364.193 290.773 364.761 291.284 365.489 291.58C366.239 291.875 367.102 292.023 368.08 292.023C368.761 292.023 369.443 291.966 370.125 291.852C370.807 291.716 371.33 291.614 371.693 291.545L373.977 302.352C373.25 302.58 372.227 302.841 370.909 303.136C369.591 303.455 367.989 303.648 366.102 303.716C362.602 303.852 359.534 303.386 356.898 302.318C354.284 301.25 352.25 299.591 350.795 297.341C349.341 295.091 348.625 292.25 348.648 288.818V238.091Z" fill="black"/>
</svg>
