<svg width="133" height="33" viewBox="0 0 133 33" fill="none" xmlns="http://www.w3.org/2000/svg">
<rect width="133" height="33" fill="#D9D9D9"/>
<path d="M38.2074 24V13.0909H41.233V24H38.2074ZM39.7273 11.6847C39.2775 11.6847 38.8916 11.5355 38.5696 11.2372C38.2524 10.9342 38.0938 10.572 38.0938 10.1506C38.0938 9.7339 38.2524 9.37642 38.5696 9.07812C38.8916 8.77509 39.2775 8.62358 39.7273 8.62358C40.1771 8.62358 40.5606 8.77509 40.8778 9.07812C41.1998 9.37642 41.3608 9.7339 41.3608 10.1506C41.3608 10.572 41.1998 10.9342 40.8778 11.2372C40.5606 11.5355 40.1771 11.6847 39.7273 11.6847ZM43.6566 24V13.0909H46.5401V15.0156H46.668C46.8952 14.3764 47.274 13.8722 47.8043 13.5028C48.3346 13.1335 48.9691 12.9489 49.7077 12.9489C50.4558 12.9489 51.0927 13.1359 51.6183 13.5099C52.1438 13.8793 52.4942 14.3812 52.6694 15.0156H52.783C53.0056 14.3906 53.408 13.8911 53.9904 13.517C54.5775 13.1383 55.2712 12.9489 56.0714 12.9489C57.0894 12.9489 57.9156 13.2732 58.5501 13.9219C59.1893 14.5658 59.5089 15.4796 59.5089 16.6634V24H56.4904V17.2599C56.4904 16.6539 56.3294 16.1993 56.0075 15.8963C55.6855 15.5933 55.283 15.4418 54.8001 15.4418C54.2508 15.4418 53.8223 15.617 53.5146 15.9673C53.2068 16.313 53.0529 16.7699 53.0529 17.3381V24H50.1197V17.196C50.1197 16.661 49.9658 16.2348 49.658 15.9176C49.355 15.6004 48.9549 15.4418 48.4577 15.4418C48.1216 15.4418 47.8185 15.527 47.5487 15.6974C47.2835 15.8632 47.0728 16.0975 46.9165 16.4006C46.7603 16.6989 46.6822 17.0492 46.6822 17.4517V24H43.6566ZM65.0096 24.206C64.3136 24.206 63.6933 24.0852 63.1488 23.8438C62.6043 23.5975 62.1734 23.2353 61.8562 22.7571C61.5437 22.2741 61.3874 21.6728 61.3874 20.9531C61.3874 20.3471 61.4987 19.8381 61.7212 19.4261C61.9438 19.0142 62.2468 18.6828 62.6303 18.4318C63.0138 18.1809 63.4495 17.9915 63.9371 17.8636C64.4296 17.7358 64.9457 17.6458 65.4854 17.5938C66.1199 17.5275 66.6313 17.4659 67.0195 17.4091C67.4078 17.3475 67.6895 17.2576 67.8647 17.1392C68.0399 17.0208 68.1275 16.8456 68.1275 16.6136V16.571C68.1275 16.1212 67.9854 15.7732 67.7013 15.527C67.422 15.2808 67.0243 15.1577 66.5082 15.1577C65.9637 15.1577 65.5304 15.2784 65.2085 15.5199C64.8865 15.7566 64.6734 16.0549 64.5692 16.4148L61.771 16.1875C61.913 15.5246 62.1924 14.9517 62.609 14.4688C63.0257 13.9811 63.5631 13.607 64.2212 13.3466C64.8841 13.0814 65.6512 12.9489 66.5224 12.9489C67.1284 12.9489 67.7085 13.0199 68.2624 13.1619C68.8211 13.304 69.3159 13.5241 69.7468 13.8224C70.1824 14.1207 70.5257 14.5043 70.7766 14.973C71.0276 15.437 71.1531 15.9934 71.1531 16.642V24H68.2837V22.4872H68.1985C68.0233 22.8281 67.7889 23.1288 67.4954 23.3892C67.2018 23.6449 66.8491 23.8461 66.4371 23.9929C66.0252 24.1349 65.5494 24.206 65.0096 24.206ZM65.8761 22.1179C66.3211 22.1179 66.7141 22.0303 67.055 21.8551C67.396 21.6752 67.6635 21.4337 67.8576 21.1307C68.0517 20.8277 68.1488 20.4844 68.1488 20.1009V18.9432C68.0541 19.0047 67.9239 19.0616 67.7582 19.1136C67.5972 19.161 67.4149 19.206 67.2113 19.2486C67.0077 19.2865 66.8041 19.322 66.6005 19.3551C66.3969 19.3835 66.2122 19.4096 66.0465 19.4332C65.6914 19.4853 65.3813 19.5682 65.1161 19.6818C64.851 19.7955 64.645 19.9493 64.4982 20.1435C64.3514 20.3329 64.2781 20.5696 64.2781 20.8537C64.2781 21.2656 64.4272 21.5805 64.7255 21.7983C65.0285 22.0114 65.4121 22.1179 65.8761 22.1179ZM78.4151 28.3182C77.435 28.3182 76.5946 28.1832 75.8938 27.9134C75.1978 27.6482 74.6438 27.286 74.2319 26.8267C73.82 26.3674 73.5524 25.8513 73.4293 25.2784L76.2276 24.902C76.3129 25.1198 76.4478 25.3234 76.6325 25.5128C76.8171 25.7022 77.061 25.8537 77.364 25.9673C77.6718 26.0857 78.0458 26.1449 78.4862 26.1449C79.1443 26.1449 79.6864 25.9839 80.1126 25.6619C80.5434 25.3447 80.7589 24.812 80.7589 24.0639V22.0682H80.631C80.4985 22.3712 80.2996 22.6577 80.0344 22.9276C79.7693 23.1974 79.4284 23.4176 79.0117 23.5881C78.5951 23.7585 78.0979 23.8438 77.5202 23.8438C76.7011 23.8438 75.9554 23.6544 75.283 23.2756C74.6154 22.892 74.0827 22.3073 73.685 21.5213C73.292 20.7306 73.0955 19.7315 73.0955 18.5241C73.0955 17.2884 73.2968 16.2562 73.6992 15.4276C74.1017 14.599 74.6367 13.9787 75.3043 13.5668C75.9767 13.1548 76.7129 12.9489 77.5131 12.9489C78.1239 12.9489 78.6353 13.053 79.0472 13.2614C79.4592 13.465 79.7906 13.7206 80.0415 14.0284C80.2972 14.3314 80.4937 14.6297 80.631 14.9233H80.7447V13.0909H83.7489V24.1065C83.7489 25.0346 83.5217 25.8111 83.0671 26.4361C82.6126 27.0611 81.9828 27.5298 81.1779 27.8423C80.3777 28.1596 79.4568 28.3182 78.4151 28.3182ZM78.479 21.571C78.9667 21.571 79.3787 21.4503 79.7148 21.2088C80.0558 20.9626 80.3162 20.6122 80.4961 20.1577C80.6808 19.6984 80.7731 19.1491 80.7731 18.5099C80.7731 17.8707 80.6831 17.3168 80.5032 16.848C80.3233 16.3745 80.0629 16.0076 79.7219 15.7472C79.381 15.4867 78.9667 15.3565 78.479 15.3565C77.9819 15.3565 77.5629 15.4915 77.2219 15.7614C76.881 16.0265 76.623 16.3958 76.4478 16.8693C76.2726 17.3428 76.185 17.8897 76.185 18.5099C76.185 19.1397 76.2726 19.6842 76.4478 20.1435C76.6277 20.598 76.8858 20.9508 77.2219 21.2017C77.5629 21.4479 77.9819 21.571 78.479 21.571ZM91.1282 24.2131C90.006 24.2131 89.0401 23.9858 88.2305 23.5312C87.4255 23.072 86.8053 22.4233 86.3697 21.5852C85.9341 20.7424 85.7163 19.7457 85.7163 18.5952C85.7163 17.473 85.9341 16.4882 86.3697 15.6406C86.8053 14.7931 87.4184 14.1326 88.2092 13.6591C89.0046 13.1856 89.9374 12.9489 91.0075 12.9489C91.7272 12.9489 92.3971 13.0649 93.0174 13.2969C93.6424 13.5241 94.1869 13.8674 94.6509 14.3267C95.1197 14.786 95.4843 15.3636 95.7447 16.0597C96.0051 16.7509 96.1353 17.5606 96.1353 18.4886V19.3196H86.9237V17.4446H93.2873C93.2873 17.009 93.1926 16.6231 93.0032 16.2869C92.8138 15.9508 92.551 15.688 92.2148 15.4986C91.8834 15.3045 91.4975 15.2074 91.0572 15.2074C90.5979 15.2074 90.1907 15.3139 89.8356 15.527C89.4852 15.7353 89.2106 16.017 89.0117 16.3722C88.8129 16.7225 88.7111 17.1132 88.7063 17.544V19.3267C88.7063 19.8665 88.8058 20.3329 89.0046 20.7259C89.2082 21.1188 89.4947 21.4219 89.864 21.6349C90.2333 21.848 90.6713 21.9545 91.1779 21.9545C91.5141 21.9545 91.8219 21.9072 92.1012 21.8125C92.3806 21.7178 92.6197 21.5758 92.8185 21.3864C93.0174 21.197 93.1689 20.965 93.2731 20.6903L96.0714 20.875C95.9293 21.5473 95.6381 22.1345 95.1978 22.6364C94.7622 23.1335 94.1987 23.5218 93.5075 23.8011C92.8209 24.0758 92.0278 24.2131 91.1282 24.2131Z" fill="black"/>
</svg>
