<svg width="99" height="70" viewBox="0 0 99 70" fill="none" xmlns="http://www.w3.org/2000/svg">
<rect width="99" height="70" fill="#D9D9D9"/>
<path d="M14.2074 42V31.0909H17.0909V33.0156H17.2188C17.446 32.3764 17.8248 31.8722 18.3551 31.5028C18.8854 31.1335 19.5199 30.9489 20.2585 30.9489C21.0066 30.9489 21.6435 31.1359 22.169 31.5099C22.6946 31.8793 23.045 32.3812 23.2202 33.0156H23.3338C23.5563 32.3906 23.9588 31.8911 24.5412 31.517C25.1283 31.1383 25.822 30.9489 26.6222 30.9489C27.6402 30.9489 28.4664 31.2732 29.1009 31.9219C29.7401 32.5658 30.0597 33.4796 30.0597 34.6634V42H27.0412V35.2599C27.0412 34.6539 26.8802 34.1993 26.5582 33.8963C26.2363 33.5933 25.8338 33.4418 25.3509 33.4418C24.8016 33.4418 24.3731 33.617 24.0653 33.9673C23.7576 34.313 23.6037 34.7699 23.6037 35.3381V42H20.6705V35.196C20.6705 34.661 20.5166 34.2348 20.2088 33.9176C19.9058 33.6004 19.5057 33.4418 19.0085 33.4418C18.6723 33.4418 18.3693 33.527 18.0994 33.6974C17.8343 33.8632 17.6236 34.0975 17.4673 34.4006C17.3111 34.6989 17.233 35.0492 17.233 35.4517V42H14.2074ZM35.5604 42.206C34.8643 42.206 34.2441 42.0852 33.6996 41.8438C33.1551 41.5975 32.7242 41.2353 32.407 40.7571C32.0945 40.2741 31.9382 39.6728 31.9382 38.9531C31.9382 38.3471 32.0495 37.8381 32.272 37.4261C32.4946 37.0142 32.7976 36.6828 33.1811 36.4318C33.5646 36.1809 34.0002 35.9915 34.4879 35.8636C34.9804 35.7358 35.4964 35.6458 36.0362 35.5938C36.6707 35.5275 37.1821 35.4659 37.5703 35.4091C37.9586 35.3475 38.2403 35.2576 38.4155 35.1392C38.5907 35.0208 38.6783 34.8456 38.6783 34.6136V34.571C38.6783 34.1212 38.5362 33.7732 38.2521 33.527C37.9728 33.2808 37.575 33.1577 37.0589 33.1577C36.5144 33.1577 36.0812 33.2784 35.7592 33.5199C35.4373 33.7566 35.2242 34.0549 35.12 34.4148L32.3217 34.1875C32.4638 33.5246 32.7431 32.9517 33.1598 32.4688C33.5765 31.9811 34.1139 31.607 34.772 31.3466C35.4349 31.0814 36.2019 30.9489 37.0732 30.9489C37.6792 30.9489 38.2592 31.0199 38.8132 31.1619C39.3719 31.304 39.8667 31.5241 40.2976 31.8224C40.7332 32.1207 41.0765 32.5043 41.3274 32.973C41.5784 33.437 41.7038 33.9934 41.7038 34.642V42H38.8345V40.4872H38.7493C38.5741 40.8281 38.3397 41.1288 38.0462 41.3892C37.7526 41.6449 37.3999 41.8461 36.9879 41.9929C36.576 42.1349 36.1001 42.206 35.5604 42.206ZM36.4268 40.1179C36.8719 40.1179 37.2649 40.0303 37.6058 39.8551C37.9467 39.6752 38.2143 39.4337 38.4084 39.1307C38.6025 38.8277 38.6996 38.4844 38.6996 38.1009V36.9432C38.6049 37.0047 38.4747 37.0616 38.3089 37.1136C38.148 37.161 37.9657 37.206 37.7621 37.2486C37.5585 37.2865 37.3549 37.322 37.1513 37.3551C36.9477 37.3835 36.763 37.4096 36.5973 37.4332C36.2422 37.4853 35.9321 37.5682 35.6669 37.6818C35.4018 37.7955 35.1958 37.9493 35.049 38.1435C34.9022 38.3329 34.8288 38.5696 34.8288 38.8537C34.8288 39.2656 34.978 39.5805 35.2763 39.7983C35.5793 40.0114 35.9628 40.1179 36.4268 40.1179ZM53.1278 34.2017L50.358 34.3722C50.3106 34.1354 50.2088 33.9223 50.0526 33.733C49.8963 33.5388 49.6903 33.3849 49.4347 33.2713C49.1837 33.1529 48.883 33.0938 48.5327 33.0938C48.0639 33.0938 47.6686 33.1932 47.3466 33.392C47.0246 33.5862 46.8636 33.8466 46.8636 34.1733C46.8636 34.4337 46.9678 34.6539 47.1761 34.8338C47.3845 35.0137 47.742 35.1581 48.2486 35.267L50.223 35.6648C51.2836 35.8826 52.0743 36.233 52.5952 36.7159C53.116 37.1989 53.3764 37.8333 53.3764 38.6193C53.3764 39.3343 53.1657 39.9616 52.7443 40.5014C52.3277 41.0412 51.7547 41.4626 51.0256 41.7656C50.3011 42.0639 49.4654 42.2131 48.5185 42.2131C47.0743 42.2131 45.9238 41.9124 45.0668 41.3111C44.2145 40.705 43.715 39.8812 43.5682 38.8395L46.544 38.6832C46.634 39.1236 46.8518 39.4598 47.1974 39.6918C47.5431 39.919 47.9858 40.0327 48.5256 40.0327C49.0559 40.0327 49.482 39.9309 49.804 39.7273C50.1307 39.5189 50.2964 39.2514 50.3011 38.9247C50.2964 38.6501 50.1804 38.4252 49.9531 38.25C49.7259 38.0701 49.3755 37.9328 48.902 37.8381L47.0128 37.4616C45.9474 37.2486 45.1544 36.8793 44.6335 36.3537C44.1174 35.8281 43.8594 35.1581 43.8594 34.3438C43.8594 33.643 44.0488 33.0393 44.4276 32.5327C44.8111 32.026 45.3485 31.6354 46.0398 31.3608C46.7358 31.0862 47.5502 30.9489 48.483 30.9489C49.8608 30.9489 50.9451 31.2401 51.7358 31.8224C52.5313 32.4048 52.9953 33.1979 53.1278 34.2017ZM60.2106 42.2131C59.0932 42.2131 58.132 41.9763 57.3271 41.5028C56.5269 41.0246 55.9113 40.3617 55.4805 39.5142C55.0543 38.6667 54.8413 37.6913 54.8413 36.5881C54.8413 35.4706 55.0567 34.4905 55.4876 33.6477C55.9232 32.8002 56.5411 32.1397 57.3413 31.6662C58.1415 31.188 59.0932 30.9489 60.1964 30.9489C61.1481 30.9489 61.9814 31.1217 62.6964 31.4673C63.4113 31.813 63.9772 32.2983 64.3938 32.9233C64.8105 33.5483 65.0401 34.2822 65.0827 35.125H62.2276C62.1471 34.5805 61.9341 34.1425 61.5884 33.8111C61.2475 33.4749 60.8001 33.3068 60.2461 33.3068C59.7773 33.3068 59.3678 33.4347 59.0174 33.6903C58.6718 33.9413 58.4019 34.3082 58.2077 34.7912C58.0136 35.2741 57.9165 35.8589 57.9165 36.5455C57.9165 37.2415 58.0112 37.8333 58.2006 38.321C58.3948 38.8087 58.667 39.1804 59.0174 39.4361C59.3678 39.6918 59.7773 39.8196 60.2461 39.8196C60.5917 39.8196 60.9019 39.7486 61.1765 39.6065C61.4558 39.4645 61.6855 39.2585 61.8654 38.9886C62.0501 38.714 62.1708 38.3849 62.2276 38.0014H65.0827C65.0354 38.8348 64.8081 39.5687 64.4009 40.2031C63.9985 40.8329 63.4421 41.3253 62.7319 41.6804C62.0217 42.0355 61.1812 42.2131 60.2106 42.2131ZM71.9489 42.2131C70.8456 42.2131 69.8916 41.9787 69.0866 41.5099C68.2865 41.0365 67.6686 40.3783 67.233 39.5355C66.7973 38.688 66.5795 37.7055 66.5795 36.5881C66.5795 35.4612 66.7973 34.4763 67.233 33.6335C67.6686 32.786 68.2865 32.1278 69.0866 31.6591C69.8916 31.1856 70.8456 30.9489 71.9489 30.9489C73.0521 30.9489 74.0038 31.1856 74.804 31.6591C75.6089 32.1278 76.2292 32.786 76.6648 33.6335C77.1004 34.4763 77.3182 35.4612 77.3182 36.5881C77.3182 37.7055 77.1004 38.688 76.6648 39.5355C76.2292 40.3783 75.6089 41.0365 74.804 41.5099C74.0038 41.9787 73.0521 42.2131 71.9489 42.2131ZM71.9631 39.8693C72.465 39.8693 72.884 39.7273 73.2202 39.4432C73.5563 39.1544 73.8097 38.7614 73.9801 38.2642C74.1553 37.767 74.2429 37.2012 74.2429 36.5668C74.2429 35.9323 74.1553 35.3665 73.9801 34.8693C73.8097 34.3722 73.5563 33.9792 73.2202 33.6903C72.884 33.4015 72.465 33.2571 71.9631 33.2571C71.4564 33.2571 71.0303 33.4015 70.6847 33.6903C70.3438 33.9792 70.0857 34.3722 69.9105 34.8693C69.7401 35.3665 69.6548 35.9323 69.6548 36.5668C69.6548 37.2012 69.7401 37.767 69.9105 38.2642C70.0857 38.7614 70.3438 39.1544 70.6847 39.4432C71.0303 39.7273 71.4564 39.8693 71.9631 39.8693ZM85.0881 31.0909V33.3636H78.5185V31.0909H85.0881ZM80.0099 28.4773H83.0355V38.6477C83.0355 38.9271 83.0781 39.1449 83.1634 39.3011C83.2486 39.4527 83.367 39.5592 83.5185 39.6207C83.6747 39.6823 83.8546 39.7131 84.0582 39.7131C84.2003 39.7131 84.3423 39.7012 84.4844 39.6776C84.6264 39.6491 84.7353 39.6278 84.8111 39.6136L85.2869 41.8651C85.1354 41.9124 84.9223 41.9669 84.6477 42.0284C84.3731 42.0947 84.0393 42.1349 83.6463 42.1491C82.9171 42.1776 82.2779 42.0805 81.7287 41.858C81.1842 41.6354 80.7604 41.2898 80.4574 40.821C80.1544 40.3523 80.0052 39.7604 80.0099 39.0455V28.4773Z" fill="black"/>
</svg>
